<mxfile host="app.diagrams.net" modified="2021-11-07T11:33:18.316Z" agent="5.0 (Macintosh; Intel Mac OS X 10_15_7) AppleWebKit/605.1.15 (KHTML, like Gecko) Version/15.1 Safari/605.1.15" etag="lrSbTgWOoPn7gpH_aMgV" version="15.7.0" type="github">
  <diagram id="C5RBs43oDa-KdzZeNtuy" name="Page-1">
    <mxGraphModel dx="1773" dy="1814" grid="1" gridSize="10" guides="1" tooltips="1" connect="1" arrows="1" fold="1" page="1" pageScale="1" pageWidth="827" pageHeight="1169" math="0" shadow="0">
      <root>
        <mxCell id="WIyWlLk6GJQsqaUBKTNV-0" />
        <mxCell id="WIyWlLk6GJQsqaUBKTNV-1" parent="WIyWlLk6GJQsqaUBKTNV-0" />
        <mxCell id="zkfFHV4jXpPFQw0GAbJ--0" value="SysData" style="swimlane;fontStyle=2;align=center;verticalAlign=top;childLayout=stackLayout;horizontal=1;startSize=26;horizontalStack=0;resizeParent=1;resizeLast=0;collapsible=1;marginBottom=0;rounded=0;shadow=0;strokeWidth=1;" parent="WIyWlLk6GJQsqaUBKTNV-1" vertex="1">
          <mxGeometry x="-30" y="20" width="160" height="508" as="geometry">
            <mxRectangle x="230" y="140" width="160" height="26" as="alternateBounds" />
          </mxGeometry>
        </mxCell>
        <mxCell id="zkfFHV4jXpPFQw0GAbJ--1" value="+ Players" style="text;align=left;verticalAlign=top;spacingLeft=4;spacingRight=4;overflow=hidden;rotatable=0;points=[[0,0.5],[1,0.5]];portConstraint=eastwest;" parent="zkfFHV4jXpPFQw0GAbJ--0" vertex="1">
          <mxGeometry y="26" width="160" height="26" as="geometry" />
        </mxCell>
        <mxCell id="zkfFHV4jXpPFQw0GAbJ--2" value="+ Questions" style="text;align=left;verticalAlign=top;spacingLeft=4;spacingRight=4;overflow=hidden;rotatable=0;points=[[0,0.5],[1,0.5]];portConstraint=eastwest;rounded=0;shadow=0;html=0;" parent="zkfFHV4jXpPFQw0GAbJ--0" vertex="1">
          <mxGeometry y="52" width="160" height="26" as="geometry" />
        </mxCell>
        <mxCell id="zkfFHV4jXpPFQw0GAbJ--3" value="+ Games" style="text;align=left;verticalAlign=top;spacingLeft=4;spacingRight=4;overflow=hidden;rotatable=0;points=[[0,0.5],[1,0.5]];portConstraint=eastwest;rounded=0;shadow=0;html=0;" parent="zkfFHV4jXpPFQw0GAbJ--0" vertex="1">
          <mxGeometry y="78" width="160" height="26" as="geometry" />
        </mxCell>
        <mxCell id="zkfFHV4jXpPFQw0GAbJ--4" value="" style="line;html=1;strokeWidth=1;align=left;verticalAlign=middle;spacingTop=-1;spacingLeft=3;spacingRight=3;rotatable=0;labelPosition=right;points=[];portConstraint=eastwest;" parent="zkfFHV4jXpPFQw0GAbJ--0" vertex="1">
          <mxGeometry y="104" width="160" height="8" as="geometry" />
        </mxCell>
        <mxCell id="VODUsRYp1Ze5HDBZDZkg-0" value="&lt;div class=&quot;page&quot; title=&quot;Page 9&quot; style=&quot;font-size: 12px&quot;&gt;&lt;div class=&quot;section&quot; style=&quot;background-color: rgb(255 , 255 , 255) ; font-size: 12px&quot;&gt;&lt;div class=&quot;layoutArea&quot; style=&quot;font-size: 12px&quot;&gt;&lt;div class=&quot;column&quot; style=&quot;font-size: 12px&quot;&gt;&lt;p style=&quot;font-size: 12px&quot;&gt;&lt;span style=&quot;font-family: &amp;#34;arialmt&amp;#34; ; font-size: 12px&quot;&gt;&lt;font style=&quot;font-size: 12px&quot;&gt;&amp;nbsp;+ loadData()&lt;/font&gt;&lt;/span&gt;&lt;/p&gt;&lt;/div&gt;&lt;/div&gt;&lt;/div&gt;&lt;/div&gt;" style="text;html=1;strokeColor=none;fillColor=none;align=left;verticalAlign=middle;whiteSpace=wrap;rounded=0;fontSize=12;" vertex="1" parent="zkfFHV4jXpPFQw0GAbJ--0">
          <mxGeometry y="112" width="160" height="30" as="geometry" />
        </mxCell>
        <mxCell id="zkfFHV4jXpPFQw0GAbJ--5" value="+ startGame()" style="text;align=left;verticalAlign=top;spacingLeft=4;spacingRight=4;overflow=hidden;rotatable=0;points=[[0,0.5],[1,0.5]];portConstraint=eastwest;" parent="zkfFHV4jXpPFQw0GAbJ--0" vertex="1">
          <mxGeometry y="142" width="160" height="26" as="geometry" />
        </mxCell>
        <mxCell id="VODUsRYp1Ze5HDBZDZkg-4" value="&lt;div class=&quot;page&quot; title=&quot;Page 9&quot;&gt;&lt;div class=&quot;section&quot; style=&quot;background-color: rgb(255 , 255 , 255)&quot;&gt;&lt;div class=&quot;layoutArea&quot;&gt;&lt;div class=&quot;column&quot;&gt;&lt;p&gt;&lt;span style=&quot;font-family: &amp;#34;arialmt&amp;#34;&quot;&gt;&lt;font style=&quot;font-size: 12px&quot;&gt;&amp;nbsp;+ loadQuestions()&lt;/font&gt;&lt;/span&gt;&lt;/p&gt;&lt;/div&gt;&lt;/div&gt;&lt;/div&gt;&lt;/div&gt;" style="text;html=1;strokeColor=none;fillColor=none;align=left;verticalAlign=middle;whiteSpace=wrap;rounded=0;" vertex="1" parent="zkfFHV4jXpPFQw0GAbJ--0">
          <mxGeometry y="168" width="160" height="38" as="geometry" />
        </mxCell>
        <mxCell id="VODUsRYp1Ze5HDBZDZkg-9" value="&lt;div class=&quot;page&quot; title=&quot;Page 9&quot; style=&quot;font-size: 12px&quot;&gt;&lt;div class=&quot;section&quot; style=&quot;background-color: rgb(255 , 255 , 255) ; font-size: 12px&quot;&gt;&lt;div class=&quot;layoutArea&quot; style=&quot;font-size: 12px&quot;&gt;&lt;div class=&quot;column&quot; style=&quot;font-size: 12px&quot;&gt;&lt;div class=&quot;page&quot; title=&quot;Page 9&quot; style=&quot;font-size: 12px&quot;&gt;&lt;div class=&quot;section&quot; style=&quot;font-size: 12px&quot;&gt;&lt;div class=&quot;layoutArea&quot; style=&quot;font-size: 12px&quot;&gt;&lt;div class=&quot;column&quot; style=&quot;font-size: 12px&quot;&gt;&lt;p style=&quot;font-size: 12px&quot;&gt;&lt;span style=&quot;font-size: 12px ; font-family: &amp;#34;arialmt&amp;#34;&quot;&gt;&amp;nbsp;+ randomQuestion()&lt;/span&gt;&lt;/p&gt;&lt;/div&gt;&lt;/div&gt;&lt;/div&gt;&lt;/div&gt;&lt;/div&gt;&lt;/div&gt;&lt;/div&gt;&lt;/div&gt;" style="text;html=1;strokeColor=none;fillColor=none;align=left;verticalAlign=middle;whiteSpace=wrap;rounded=0;fontSize=12;" vertex="1" parent="zkfFHV4jXpPFQw0GAbJ--0">
          <mxGeometry y="206" width="160" height="30" as="geometry" />
        </mxCell>
        <mxCell id="VODUsRYp1Ze5HDBZDZkg-3" value="&lt;div class=&quot;page&quot; title=&quot;Page 9&quot; style=&quot;font-size: 12px&quot;&gt;&lt;div class=&quot;section&quot; style=&quot;background-color: rgb(255 , 255 , 255) ; font-size: 12px&quot;&gt;&lt;div class=&quot;layoutArea&quot; style=&quot;font-size: 12px&quot;&gt;&lt;div class=&quot;column&quot; style=&quot;font-size: 12px&quot;&gt;&lt;p style=&quot;font-size: 12px&quot;&gt;&lt;span style=&quot;font-size: 12px ; font-family: &amp;#34;arialmt&amp;#34;&quot;&gt;&amp;nbsp;+ setPlayer()&lt;/span&gt;&lt;/p&gt;&lt;/div&gt;&lt;/div&gt;&lt;/div&gt;&lt;/div&gt;" style="text;html=1;strokeColor=none;fillColor=none;align=left;verticalAlign=middle;whiteSpace=wrap;rounded=0;fontSize=12;" vertex="1" parent="zkfFHV4jXpPFQw0GAbJ--0">
          <mxGeometry y="236" width="160" height="30" as="geometry" />
        </mxCell>
        <mxCell id="VODUsRYp1Ze5HDBZDZkg-5" value="&lt;div class=&quot;page&quot; title=&quot;Page 9&quot; style=&quot;font-size: 12px&quot;&gt;&lt;div class=&quot;section&quot; style=&quot;background-color: rgb(255 , 255 , 255) ; font-size: 12px&quot;&gt;&lt;div class=&quot;layoutArea&quot; style=&quot;font-size: 12px&quot;&gt;&lt;div class=&quot;column&quot; style=&quot;font-size: 12px&quot;&gt;&lt;p style=&quot;font-size: 12px&quot;&gt;&lt;span style=&quot;font-size: 12px ; font-family: &amp;#34;arialmt&amp;#34;&quot;&gt;&amp;nbsp;+ &amp;nbsp;setQueastion()&lt;/span&gt;&lt;/p&gt;&lt;/div&gt;&lt;/div&gt;&lt;/div&gt;&lt;/div&gt;" style="text;html=1;strokeColor=none;fillColor=none;align=left;verticalAlign=middle;whiteSpace=wrap;rounded=0;fontSize=12;" vertex="1" parent="zkfFHV4jXpPFQw0GAbJ--0">
          <mxGeometry y="266" width="160" height="30" as="geometry" />
        </mxCell>
        <mxCell id="VODUsRYp1Ze5HDBZDZkg-91" value="+ setGame()" style="text;align=left;verticalAlign=top;spacingLeft=4;spacingRight=4;overflow=hidden;rotatable=0;points=[[0,0.5],[1,0.5]];portConstraint=eastwest;" vertex="1" parent="zkfFHV4jXpPFQw0GAbJ--0">
          <mxGeometry y="296" width="160" height="26" as="geometry" />
        </mxCell>
        <mxCell id="VODUsRYp1Ze5HDBZDZkg-6" value="+ removeQuestion()" style="text;align=left;verticalAlign=top;spacingLeft=4;spacingRight=4;overflow=hidden;rotatable=0;points=[[0,0.5],[1,0.5]];portConstraint=eastwest;" vertex="1" parent="zkfFHV4jXpPFQw0GAbJ--0">
          <mxGeometry y="322" width="160" height="26" as="geometry" />
        </mxCell>
        <mxCell id="VODUsRYp1Ze5HDBZDZkg-7" value="&lt;div class=&quot;page&quot; title=&quot;Page 9&quot; style=&quot;font-size: 12px&quot;&gt;&lt;div class=&quot;section&quot; style=&quot;background-color: rgb(255 , 255 , 255) ; font-size: 12px&quot;&gt;&lt;div class=&quot;layoutArea&quot; style=&quot;font-size: 12px&quot;&gt;&lt;div class=&quot;column&quot; style=&quot;font-size: 12px&quot;&gt;&lt;p style=&quot;font-size: 12px&quot;&gt;&lt;span style=&quot;font-size: 12px ; font-family: &amp;#34;arialmt&amp;#34;&quot;&gt;&amp;nbsp;+ updateQuestion()&lt;/span&gt;&lt;/p&gt;&lt;/div&gt;&lt;/div&gt;&lt;/div&gt;&lt;/div&gt;" style="text;html=1;strokeColor=none;fillColor=none;align=left;verticalAlign=middle;whiteSpace=wrap;rounded=0;fontSize=12;" vertex="1" parent="zkfFHV4jXpPFQw0GAbJ--0">
          <mxGeometry y="348" width="160" height="30" as="geometry" />
        </mxCell>
        <mxCell id="VODUsRYp1Ze5HDBZDZkg-10" value="+ getPlayers()" style="text;align=left;verticalAlign=top;spacingLeft=4;spacingRight=4;overflow=hidden;rotatable=0;points=[[0,0.5],[1,0.5]];portConstraint=eastwest;" vertex="1" parent="zkfFHV4jXpPFQw0GAbJ--0">
          <mxGeometry y="378" width="160" height="26" as="geometry" />
        </mxCell>
        <mxCell id="VODUsRYp1Ze5HDBZDZkg-82" value="+ getQuestions()" style="text;align=left;verticalAlign=top;spacingLeft=4;spacingRight=4;overflow=hidden;rotatable=0;points=[[0,0.5],[1,0.5]];portConstraint=eastwest;" vertex="1" parent="zkfFHV4jXpPFQw0GAbJ--0">
          <mxGeometry y="404" width="160" height="26" as="geometry" />
        </mxCell>
        <mxCell id="VODUsRYp1Ze5HDBZDZkg-83" value="+ getGames()" style="text;align=left;verticalAlign=top;spacingLeft=4;spacingRight=4;overflow=hidden;rotatable=0;points=[[0,0.5],[1,0.5]];portConstraint=eastwest;" vertex="1" parent="zkfFHV4jXpPFQw0GAbJ--0">
          <mxGeometry y="430" width="160" height="26" as="geometry" />
        </mxCell>
        <mxCell id="VODUsRYp1Ze5HDBZDZkg-84" value="+ getGameOfPlayer()" style="text;align=left;verticalAlign=top;spacingLeft=4;spacingRight=4;overflow=hidden;rotatable=0;points=[[0,0.5],[1,0.5]];portConstraint=eastwest;" vertex="1" parent="zkfFHV4jXpPFQw0GAbJ--0">
          <mxGeometry y="456" width="160" height="26" as="geometry" />
        </mxCell>
        <mxCell id="VODUsRYp1Ze5HDBZDZkg-85" value="+ getPlayer()" style="text;align=left;verticalAlign=top;spacingLeft=4;spacingRight=4;overflow=hidden;rotatable=0;points=[[0,0.5],[1,0.5]];portConstraint=eastwest;" vertex="1" parent="zkfFHV4jXpPFQw0GAbJ--0">
          <mxGeometry y="482" width="160" height="26" as="geometry" />
        </mxCell>
        <mxCell id="zkfFHV4jXpPFQw0GAbJ--6" value="Question" style="swimlane;fontStyle=0;align=center;verticalAlign=top;childLayout=stackLayout;horizontal=1;startSize=26;horizontalStack=0;resizeParent=1;resizeLast=0;collapsible=1;marginBottom=0;rounded=0;shadow=0;strokeWidth=1;" parent="WIyWlLk6GJQsqaUBKTNV-1" vertex="1">
          <mxGeometry x="120" y="790" width="160" height="290" as="geometry">
            <mxRectangle x="130" y="380" width="160" height="26" as="alternateBounds" />
          </mxGeometry>
        </mxCell>
        <mxCell id="zkfFHV4jXpPFQw0GAbJ--7" value="Question" style="text;align=left;verticalAlign=top;spacingLeft=4;spacingRight=4;overflow=hidden;rotatable=0;points=[[0,0.5],[1,0.5]];portConstraint=eastwest;" parent="zkfFHV4jXpPFQw0GAbJ--6" vertex="1">
          <mxGeometry y="26" width="160" height="26" as="geometry" />
        </mxCell>
        <mxCell id="zkfFHV4jXpPFQw0GAbJ--8" value="ID" style="text;align=left;verticalAlign=top;spacingLeft=4;spacingRight=4;overflow=hidden;rotatable=0;points=[[0,0.5],[1,0.5]];portConstraint=eastwest;rounded=0;shadow=0;html=0;" parent="zkfFHV4jXpPFQw0GAbJ--6" vertex="1">
          <mxGeometry y="52" width="160" height="26" as="geometry" />
        </mxCell>
        <mxCell id="zkfFHV4jXpPFQw0GAbJ--10" value="Color" style="text;align=left;verticalAlign=top;spacingLeft=4;spacingRight=4;overflow=hidden;rotatable=0;points=[[0,0.5],[1,0.5]];portConstraint=eastwest;fontStyle=4" parent="zkfFHV4jXpPFQw0GAbJ--6" vertex="1">
          <mxGeometry y="78" width="160" height="26" as="geometry" />
        </mxCell>
        <mxCell id="zkfFHV4jXpPFQw0GAbJ--11" value="TrueAnswer" style="text;align=left;verticalAlign=top;spacingLeft=4;spacingRight=4;overflow=hidden;rotatable=0;points=[[0,0.5],[1,0.5]];portConstraint=eastwest;" parent="zkfFHV4jXpPFQw0GAbJ--6" vertex="1">
          <mxGeometry y="104" width="160" height="26" as="geometry" />
        </mxCell>
        <mxCell id="VODUsRYp1Ze5HDBZDZkg-17" value="Answer2:" style="text;align=left;verticalAlign=top;spacingLeft=4;spacingRight=4;overflow=hidden;rotatable=0;points=[[0,0.5],[1,0.5]];portConstraint=eastwest;" vertex="1" parent="zkfFHV4jXpPFQw0GAbJ--6">
          <mxGeometry y="130" width="160" height="26" as="geometry" />
        </mxCell>
        <mxCell id="VODUsRYp1Ze5HDBZDZkg-18" value="Answer3:" style="text;align=left;verticalAlign=top;spacingLeft=4;spacingRight=4;overflow=hidden;rotatable=0;points=[[0,0.5],[1,0.5]];portConstraint=eastwest;rounded=0;shadow=0;html=0;" vertex="1" parent="zkfFHV4jXpPFQw0GAbJ--6">
          <mxGeometry y="156" width="160" height="26" as="geometry" />
        </mxCell>
        <mxCell id="VODUsRYp1Ze5HDBZDZkg-19" value="Answer4" style="text;align=left;verticalAlign=top;spacingLeft=4;spacingRight=4;overflow=hidden;rotatable=0;points=[[0,0.5],[1,0.5]];portConstraint=eastwest;rounded=0;shadow=0;html=0;" vertex="1" parent="zkfFHV4jXpPFQw0GAbJ--6">
          <mxGeometry y="182" width="160" height="26" as="geometry" />
        </mxCell>
        <mxCell id="VODUsRYp1Ze5HDBZDZkg-20" value="level" style="text;align=left;verticalAlign=top;spacingLeft=4;spacingRight=4;overflow=hidden;rotatable=0;points=[[0,0.5],[1,0.5]];portConstraint=eastwest;" vertex="1" parent="zkfFHV4jXpPFQw0GAbJ--6">
          <mxGeometry y="208" width="160" height="26" as="geometry" />
        </mxCell>
        <mxCell id="zkfFHV4jXpPFQw0GAbJ--9" value="" style="line;html=1;strokeWidth=1;align=left;verticalAlign=middle;spacingTop=-1;spacingLeft=3;spacingRight=3;rotatable=0;labelPosition=right;points=[];portConstraint=eastwest;" parent="zkfFHV4jXpPFQw0GAbJ--6" vertex="1">
          <mxGeometry y="234" width="160" height="8" as="geometry" />
        </mxCell>
        <mxCell id="VODUsRYp1Ze5HDBZDZkg-21" value="&lt;div class=&quot;page&quot; title=&quot;Page 10&quot;&gt;&lt;div class=&quot;section&quot; style=&quot;background-color: rgb(255 , 255 , 255)&quot;&gt;&lt;div class=&quot;layoutArea&quot;&gt;&lt;div class=&quot;column&quot;&gt;&lt;p&gt;&lt;span style=&quot;font-size: 12pt ; font-family: &amp;#34;arialmt&amp;#34;&quot;&gt;RandomAnswers&lt;/span&gt;&lt;/p&gt;&lt;/div&gt;&lt;/div&gt;&lt;/div&gt;&lt;/div&gt;" style="text;html=1;strokeColor=none;fillColor=none;align=center;verticalAlign=middle;whiteSpace=wrap;rounded=0;" vertex="1" parent="zkfFHV4jXpPFQw0GAbJ--6">
          <mxGeometry y="242" width="160" height="30" as="geometry" />
        </mxCell>
        <mxCell id="zkfFHV4jXpPFQw0GAbJ--13" value="Ghost" style="swimlane;fontStyle=0;align=center;verticalAlign=top;childLayout=stackLayout;horizontal=1;startSize=26;horizontalStack=0;resizeParent=1;resizeLast=0;collapsible=1;marginBottom=0;rounded=0;shadow=0;strokeWidth=1;" parent="WIyWlLk6GJQsqaUBKTNV-1" vertex="1">
          <mxGeometry x="340" y="690" width="160" height="156" as="geometry">
            <mxRectangle x="340" y="380" width="170" height="26" as="alternateBounds" />
          </mxGeometry>
        </mxCell>
        <mxCell id="zkfFHV4jXpPFQw0GAbJ--14" value="ID" style="text;align=left;verticalAlign=top;spacingLeft=4;spacingRight=4;overflow=hidden;rotatable=0;points=[[0,0.5],[1,0.5]];portConstraint=eastwest;" parent="zkfFHV4jXpPFQw0GAbJ--13" vertex="1">
          <mxGeometry y="26" width="160" height="24" as="geometry" />
        </mxCell>
        <mxCell id="VODUsRYp1Ze5HDBZDZkg-14" value="RegularSpeed:" style="text;align=left;verticalAlign=top;spacingLeft=4;spacingRight=4;overflow=hidden;rotatable=0;points=[[0,0.5],[1,0.5]];portConstraint=eastwest;" vertex="1" parent="zkfFHV4jXpPFQw0GAbJ--13">
          <mxGeometry y="50" width="160" height="26" as="geometry" />
        </mxCell>
        <mxCell id="VODUsRYp1Ze5HDBZDZkg-15" value="LevelUpSpeed" style="text;align=left;verticalAlign=top;spacingLeft=4;spacingRight=4;overflow=hidden;rotatable=0;points=[[0,0.5],[1,0.5]];portConstraint=eastwest;" vertex="1" parent="zkfFHV4jXpPFQw0GAbJ--13">
          <mxGeometry y="76" width="160" height="24" as="geometry" />
        </mxCell>
        <mxCell id="VODUsRYp1Ze5HDBZDZkg-16" value="Image" style="text;align=left;verticalAlign=top;spacingLeft=4;spacingRight=4;overflow=hidden;rotatable=0;points=[[0,0.5],[1,0.5]];portConstraint=eastwest;" vertex="1" parent="zkfFHV4jXpPFQw0GAbJ--13">
          <mxGeometry y="100" width="160" height="26" as="geometry" />
        </mxCell>
        <mxCell id="VODUsRYp1Ze5HDBZDZkg-66" value="speed" style="text;html=1;strokeColor=none;fillColor=none;align=center;verticalAlign=middle;whiteSpace=wrap;rounded=0;" vertex="1" parent="zkfFHV4jXpPFQw0GAbJ--13">
          <mxGeometry y="126" width="160" height="30" as="geometry" />
        </mxCell>
        <mxCell id="zkfFHV4jXpPFQw0GAbJ--17" value="Players" style="swimlane;fontStyle=0;align=center;verticalAlign=top;childLayout=stackLayout;horizontal=1;startSize=26;horizontalStack=0;resizeParent=1;resizeLast=0;collapsible=1;marginBottom=0;rounded=0;shadow=0;strokeWidth=1;" parent="WIyWlLk6GJQsqaUBKTNV-1" vertex="1">
          <mxGeometry x="254" y="20" width="160" height="350" as="geometry">
            <mxRectangle x="550" y="140" width="160" height="26" as="alternateBounds" />
          </mxGeometry>
        </mxCell>
        <mxCell id="zkfFHV4jXpPFQw0GAbJ--18" value="+ NickName" style="text;align=left;verticalAlign=top;spacingLeft=4;spacingRight=4;overflow=hidden;rotatable=0;points=[[0,0.5],[1,0.5]];portConstraint=eastwest;" parent="zkfFHV4jXpPFQw0GAbJ--17" vertex="1">
          <mxGeometry y="26" width="160" height="26" as="geometry" />
        </mxCell>
        <mxCell id="VODUsRYp1Ze5HDBZDZkg-11" value="- Password" style="text;align=left;verticalAlign=top;spacingLeft=4;spacingRight=4;overflow=hidden;rotatable=0;points=[[0,0.5],[1,0.5]];portConstraint=eastwest;rounded=0;shadow=0;html=0;" vertex="1" parent="zkfFHV4jXpPFQw0GAbJ--17">
          <mxGeometry y="52" width="160" height="26" as="geometry" />
        </mxCell>
        <mxCell id="zkfFHV4jXpPFQw0GAbJ--19" value="+ Games" style="text;align=left;verticalAlign=top;spacingLeft=4;spacingRight=4;overflow=hidden;rotatable=0;points=[[0,0.5],[1,0.5]];portConstraint=eastwest;rounded=0;shadow=0;html=0;" parent="zkfFHV4jXpPFQw0GAbJ--17" vertex="1">
          <mxGeometry y="78" width="160" height="26" as="geometry" />
        </mxCell>
        <mxCell id="VODUsRYp1Ze5HDBZDZkg-13" value="+ GameHighScore" style="text;html=1;strokeColor=none;fillColor=none;align=left;verticalAlign=middle;whiteSpace=wrap;rounded=0;" vertex="1" parent="zkfFHV4jXpPFQw0GAbJ--17">
          <mxGeometry y="104" width="160" height="30" as="geometry" />
        </mxCell>
        <mxCell id="zkfFHV4jXpPFQw0GAbJ--23" value="" style="line;html=1;strokeWidth=1;align=left;verticalAlign=middle;spacingTop=-1;spacingLeft=3;spacingRight=3;rotatable=0;labelPosition=right;points=[];portConstraint=eastwest;" parent="zkfFHV4jXpPFQw0GAbJ--17" vertex="1">
          <mxGeometry y="134" width="160" height="8" as="geometry" />
        </mxCell>
        <mxCell id="zkfFHV4jXpPFQw0GAbJ--25" value="+ setGame()" style="text;align=left;verticalAlign=top;spacingLeft=4;spacingRight=4;overflow=hidden;rotatable=0;points=[[0,0.5],[1,0.5]];portConstraint=eastwest;" parent="zkfFHV4jXpPFQw0GAbJ--17" vertex="1">
          <mxGeometry y="142" width="160" height="26" as="geometry" />
        </mxCell>
        <mxCell id="VODUsRYp1Ze5HDBZDZkg-97" value="+ setPassword()" style="text;align=left;verticalAlign=top;spacingLeft=4;spacingRight=4;overflow=hidden;rotatable=0;points=[[0,0.5],[1,0.5]];portConstraint=eastwest;" vertex="1" parent="zkfFHV4jXpPFQw0GAbJ--17">
          <mxGeometry y="168" width="160" height="26" as="geometry" />
        </mxCell>
        <mxCell id="VODUsRYp1Ze5HDBZDZkg-98" value="+ setNickName()" style="text;align=left;verticalAlign=top;spacingLeft=4;spacingRight=4;overflow=hidden;rotatable=0;points=[[0,0.5],[1,0.5]];portConstraint=eastwest;" vertex="1" parent="zkfFHV4jXpPFQw0GAbJ--17">
          <mxGeometry y="194" width="160" height="26" as="geometry" />
        </mxCell>
        <mxCell id="VODUsRYp1Ze5HDBZDZkg-99" value="+ setGameHighScore()" style="text;align=left;verticalAlign=top;spacingLeft=4;spacingRight=4;overflow=hidden;rotatable=0;points=[[0,0.5],[1,0.5]];portConstraint=eastwest;" vertex="1" parent="zkfFHV4jXpPFQw0GAbJ--17">
          <mxGeometry y="220" width="160" height="26" as="geometry" />
        </mxCell>
        <mxCell id="VODUsRYp1Ze5HDBZDZkg-100" value="+ getGame()" style="text;align=left;verticalAlign=top;spacingLeft=4;spacingRight=4;overflow=hidden;rotatable=0;points=[[0,0.5],[1,0.5]];portConstraint=eastwest;" vertex="1" parent="zkfFHV4jXpPFQw0GAbJ--17">
          <mxGeometry y="246" width="160" height="26" as="geometry" />
        </mxCell>
        <mxCell id="VODUsRYp1Ze5HDBZDZkg-101" value="+ getPassword()" style="text;align=left;verticalAlign=top;spacingLeft=4;spacingRight=4;overflow=hidden;rotatable=0;points=[[0,0.5],[1,0.5]];portConstraint=eastwest;" vertex="1" parent="zkfFHV4jXpPFQw0GAbJ--17">
          <mxGeometry y="272" width="160" height="26" as="geometry" />
        </mxCell>
        <mxCell id="VODUsRYp1Ze5HDBZDZkg-102" value="+ getNickName()" style="text;align=left;verticalAlign=top;spacingLeft=4;spacingRight=4;overflow=hidden;rotatable=0;points=[[0,0.5],[1,0.5]];portConstraint=eastwest;" vertex="1" parent="zkfFHV4jXpPFQw0GAbJ--17">
          <mxGeometry y="298" width="160" height="26" as="geometry" />
        </mxCell>
        <mxCell id="VODUsRYp1Ze5HDBZDZkg-103" value="+ getGameHighScore()" style="text;align=left;verticalAlign=top;spacingLeft=4;spacingRight=4;overflow=hidden;rotatable=0;points=[[0,0.5],[1,0.5]];portConstraint=eastwest;" vertex="1" parent="zkfFHV4jXpPFQw0GAbJ--17">
          <mxGeometry y="324" width="160" height="26" as="geometry" />
        </mxCell>
        <mxCell id="VODUsRYp1Ze5HDBZDZkg-22" value="Game" style="swimlane;fontStyle=0;childLayout=stackLayout;horizontal=1;startSize=30;horizontalStack=0;resizeParent=1;resizeParentMax=0;resizeLast=0;collapsible=1;marginBottom=0;" vertex="1" parent="WIyWlLk6GJQsqaUBKTNV-1">
          <mxGeometry x="590" y="20" width="140" height="640" as="geometry" />
        </mxCell>
        <mxCell id="VODUsRYp1Ze5HDBZDZkg-23" value="+ ID" style="text;strokeColor=none;fillColor=none;align=left;verticalAlign=middle;spacingLeft=4;spacingRight=4;overflow=hidden;points=[[0,0.5],[1,0.5]];portConstraint=eastwest;rotatable=0;" vertex="1" parent="VODUsRYp1Ze5HDBZDZkg-22">
          <mxGeometry y="30" width="140" height="30" as="geometry" />
        </mxCell>
        <mxCell id="VODUsRYp1Ze5HDBZDZkg-26" value="+ Score" style="text;strokeColor=none;fillColor=none;align=left;verticalAlign=middle;spacingLeft=4;spacingRight=4;overflow=hidden;points=[[0,0.5],[1,0.5]];portConstraint=eastwest;rotatable=0;" vertex="1" parent="VODUsRYp1Ze5HDBZDZkg-22">
          <mxGeometry y="60" width="140" height="30" as="geometry" />
        </mxCell>
        <mxCell id="VODUsRYp1Ze5HDBZDZkg-27" value="+ Live" style="text;strokeColor=none;fillColor=none;align=left;verticalAlign=middle;spacingLeft=4;spacingRight=4;overflow=hidden;points=[[0,0.5],[1,0.5]];portConstraint=eastwest;rotatable=0;" vertex="1" parent="VODUsRYp1Ze5HDBZDZkg-22">
          <mxGeometry y="90" width="140" height="30" as="geometry" />
        </mxCell>
        <mxCell id="zkfFHV4jXpPFQw0GAbJ--15" value="" style="line;html=1;strokeWidth=1;align=left;verticalAlign=middle;spacingTop=-1;spacingLeft=3;spacingRight=3;rotatable=0;labelPosition=right;points=[];portConstraint=eastwest;" parent="VODUsRYp1Ze5HDBZDZkg-22" vertex="1">
          <mxGeometry y="120" width="140" height="6" as="geometry" />
        </mxCell>
        <mxCell id="VODUsRYp1Ze5HDBZDZkg-30" value="&lt;div class=&quot;page&quot; title=&quot;Page 11&quot;&gt;&lt;div class=&quot;section&quot; style=&quot;background-color: rgb(255 , 255 , 255)&quot;&gt;&lt;div class=&quot;layoutArea&quot;&gt;&lt;div class=&quot;column&quot;&gt;&lt;p&gt;&lt;span style=&quot;font-family: &amp;#34;arialmt&amp;#34;&quot;&gt;&amp;nbsp;+ openGame()&lt;/span&gt;&lt;/p&gt;&lt;/div&gt;&lt;/div&gt;&lt;/div&gt;&lt;/div&gt;" style="text;html=1;strokeColor=none;fillColor=none;align=left;verticalAlign=middle;whiteSpace=wrap;rounded=0;" vertex="1" parent="VODUsRYp1Ze5HDBZDZkg-22">
          <mxGeometry y="126" width="140" height="30" as="geometry" />
        </mxCell>
        <mxCell id="VODUsRYp1Ze5HDBZDZkg-31" value="&lt;div class=&quot;page&quot; title=&quot;Page 11&quot;&gt;&lt;div class=&quot;section&quot; style=&quot;background-color: rgb(255 , 255 , 255)&quot;&gt;&lt;div class=&quot;layoutArea&quot;&gt;&lt;div class=&quot;column&quot;&gt;&lt;div class=&quot;page&quot; title=&quot;Page 11&quot;&gt;&lt;div class=&quot;section&quot;&gt;&lt;div class=&quot;layoutArea&quot;&gt;&lt;div class=&quot;column&quot;&gt;&lt;p&gt;&lt;span style=&quot;font-family: &amp;#34;arialmt&amp;#34;&quot;&gt;&lt;font style=&quot;font-size: 12px&quot;&gt;&amp;nbsp;+ startGame()&lt;/font&gt;&lt;/span&gt;&lt;/p&gt;&lt;/div&gt;&lt;/div&gt;&lt;/div&gt;&lt;/div&gt;&lt;/div&gt;&lt;/div&gt;&lt;/div&gt;&lt;/div&gt;" style="text;html=1;strokeColor=none;fillColor=none;align=left;verticalAlign=middle;whiteSpace=wrap;rounded=0;" vertex="1" parent="VODUsRYp1Ze5HDBZDZkg-22">
          <mxGeometry y="156" width="140" height="30" as="geometry" />
        </mxCell>
        <mxCell id="VODUsRYp1Ze5HDBZDZkg-32" value="&lt;div class=&quot;page&quot; title=&quot;Page 11&quot; style=&quot;font-size: 12px&quot;&gt;&lt;div class=&quot;section&quot; style=&quot;background-color: rgb(255 , 255 , 255) ; font-size: 12px&quot;&gt;&lt;div class=&quot;layoutArea&quot; style=&quot;font-size: 12px&quot;&gt;&lt;div class=&quot;column&quot; style=&quot;font-size: 12px&quot;&gt;&lt;div class=&quot;page&quot; title=&quot;Page 11&quot; style=&quot;font-size: 12px&quot;&gt;&lt;div class=&quot;section&quot; style=&quot;font-size: 12px&quot;&gt;&lt;div class=&quot;layoutArea&quot; style=&quot;font-size: 12px&quot;&gt;&lt;div class=&quot;column&quot; style=&quot;font-size: 12px&quot;&gt;&lt;p style=&quot;font-size: 12px&quot;&gt;&lt;span style=&quot;font-size: 12px ; font-family: &amp;#34;arialmt&amp;#34;&quot;&gt;&amp;nbsp;+ pauseGame()&lt;/span&gt;&lt;/p&gt;&lt;/div&gt;&lt;/div&gt;&lt;/div&gt;&lt;/div&gt;&lt;/div&gt;&lt;/div&gt;&lt;/div&gt;&lt;/div&gt;" style="text;html=1;strokeColor=none;fillColor=none;align=left;verticalAlign=middle;whiteSpace=wrap;rounded=0;fontSize=12;" vertex="1" parent="VODUsRYp1Ze5HDBZDZkg-22">
          <mxGeometry y="186" width="140" height="30" as="geometry" />
        </mxCell>
        <mxCell id="VODUsRYp1Ze5HDBZDZkg-33" value="&lt;div class=&quot;page&quot; title=&quot;Page 11&quot;&gt;&lt;div class=&quot;section&quot; style=&quot;background-color: rgb(255 , 255 , 255)&quot;&gt;&lt;div class=&quot;layoutArea&quot;&gt;&lt;div class=&quot;column&quot;&gt;&lt;div class=&quot;page&quot; title=&quot;Page 11&quot;&gt;&lt;div class=&quot;section&quot;&gt;&lt;div class=&quot;layoutArea&quot;&gt;&lt;div class=&quot;column&quot;&gt;&lt;p&gt;&lt;span style=&quot;font-family: &amp;#34;arialmt&amp;#34;&quot;&gt;&amp;nbsp;+ finishGame()&lt;/span&gt;&lt;/p&gt;&lt;/div&gt;&lt;/div&gt;&lt;/div&gt;&lt;/div&gt;&lt;/div&gt;&lt;/div&gt;&lt;/div&gt;&lt;/div&gt;" style="text;html=1;strokeColor=none;fillColor=none;align=left;verticalAlign=middle;whiteSpace=wrap;rounded=0;" vertex="1" parent="VODUsRYp1Ze5HDBZDZkg-22">
          <mxGeometry y="216" width="140" height="30" as="geometry" />
        </mxCell>
        <mxCell id="VODUsRYp1Ze5HDBZDZkg-34" value="&lt;div class=&quot;page&quot; title=&quot;Page 11&quot; style=&quot;font-size: 12px&quot;&gt;&lt;div class=&quot;section&quot; style=&quot;background-color: rgb(255 , 255 , 255) ; font-size: 12px&quot;&gt;&lt;div class=&quot;layoutArea&quot; style=&quot;font-size: 12px&quot;&gt;&lt;div class=&quot;column&quot; style=&quot;font-size: 12px&quot;&gt;&lt;div class=&quot;page&quot; title=&quot;Page 11&quot; style=&quot;font-size: 12px&quot;&gt;&lt;div class=&quot;section&quot; style=&quot;font-size: 12px&quot;&gt;&lt;div class=&quot;layoutArea&quot; style=&quot;font-size: 12px&quot;&gt;&lt;div class=&quot;column&quot; style=&quot;font-size: 12px&quot;&gt;&lt;p style=&quot;font-size: 12px&quot;&gt;&lt;span style=&quot;font-size: 12px ; font-family: &amp;#34;arialmt&amp;#34;&quot;&gt;&amp;nbsp;+ levelUp()&lt;/span&gt;&lt;/p&gt;&lt;/div&gt;&lt;/div&gt;&lt;/div&gt;&lt;/div&gt;&lt;/div&gt;&lt;/div&gt;&lt;/div&gt;&lt;/div&gt;" style="text;html=1;strokeColor=none;fillColor=none;align=left;verticalAlign=middle;whiteSpace=wrap;rounded=0;fontSize=12;" vertex="1" parent="VODUsRYp1Ze5HDBZDZkg-22">
          <mxGeometry y="246" width="140" height="34" as="geometry" />
        </mxCell>
        <mxCell id="VODUsRYp1Ze5HDBZDZkg-36" value="&lt;div class=&quot;page&quot; title=&quot;Page 11&quot; style=&quot;font-size: 12px&quot;&gt;&lt;div class=&quot;section&quot; style=&quot;background-color: rgb(255 , 255 , 255) ; font-size: 12px&quot;&gt;&lt;div class=&quot;layoutArea&quot; style=&quot;font-size: 12px&quot;&gt;&lt;div class=&quot;column&quot; style=&quot;font-size: 12px&quot;&gt;&lt;div class=&quot;page&quot; title=&quot;Page 11&quot; style=&quot;font-size: 12px&quot;&gt;&lt;div class=&quot;section&quot; style=&quot;font-size: 12px&quot;&gt;&lt;div class=&quot;layoutArea&quot; style=&quot;font-size: 12px&quot;&gt;&lt;div class=&quot;column&quot; style=&quot;font-size: 12px&quot;&gt;&lt;div class=&quot;page&quot; title=&quot;Page 11&quot; style=&quot;font-size: 12px&quot;&gt;&lt;div class=&quot;section&quot; style=&quot;font-size: 12px&quot;&gt;&lt;div class=&quot;layoutArea&quot; style=&quot;font-size: 12px&quot;&gt;&lt;div class=&quot;column&quot; style=&quot;font-size: 12px&quot;&gt;&lt;p style=&quot;font-size: 12px&quot;&gt;&lt;span style=&quot;font-size: 12px ; font-family: &amp;#34;arialmt&amp;#34;&quot;&gt;&amp;nbsp;+ eatedPoint()&lt;/span&gt;&lt;/p&gt;&lt;/div&gt;&lt;/div&gt;&lt;/div&gt;&lt;/div&gt;&lt;/div&gt;&lt;/div&gt;&lt;/div&gt;&lt;/div&gt;&lt;/div&gt;&lt;/div&gt;&lt;/div&gt;&lt;/div&gt;" style="text;html=1;strokeColor=none;fillColor=none;align=left;verticalAlign=middle;whiteSpace=wrap;rounded=0;fontSize=12;" vertex="1" parent="VODUsRYp1Ze5HDBZDZkg-22">
          <mxGeometry y="280" width="140" height="30" as="geometry" />
        </mxCell>
        <mxCell id="VODUsRYp1Ze5HDBZDZkg-37" value="&lt;div class=&quot;page&quot; title=&quot;Page 11&quot; style=&quot;font-size: 12px&quot;&gt;&lt;div class=&quot;section&quot; style=&quot;background-color: rgb(255 , 255 , 255) ; font-size: 12px&quot;&gt;&lt;div class=&quot;layoutArea&quot; style=&quot;font-size: 12px&quot;&gt;&lt;div class=&quot;column&quot; style=&quot;font-size: 12px&quot;&gt;&lt;div class=&quot;page&quot; title=&quot;Page 11&quot; style=&quot;font-size: 12px&quot;&gt;&lt;div class=&quot;section&quot; style=&quot;font-size: 12px&quot;&gt;&lt;div class=&quot;layoutArea&quot; style=&quot;font-size: 12px&quot;&gt;&lt;div class=&quot;column&quot; style=&quot;font-size: 12px&quot;&gt;&lt;div class=&quot;page&quot; title=&quot;Page 11&quot; style=&quot;font-size: 12px&quot;&gt;&lt;div class=&quot;section&quot; style=&quot;font-size: 12px&quot;&gt;&lt;div class=&quot;layoutArea&quot; style=&quot;font-size: 12px&quot;&gt;&lt;div class=&quot;column&quot; style=&quot;font-size: 12px&quot;&gt;&lt;p style=&quot;font-size: 12px&quot;&gt;&lt;span style=&quot;font-size: 12px ; font-family: &amp;#34;arialmt&amp;#34;&quot;&gt;&amp;nbsp;+ checkPoint()&lt;/span&gt;&lt;/p&gt;&lt;/div&gt;&lt;/div&gt;&lt;/div&gt;&lt;/div&gt;&lt;/div&gt;&lt;/div&gt;&lt;/div&gt;&lt;/div&gt;&lt;/div&gt;&lt;/div&gt;&lt;/div&gt;&lt;/div&gt;" style="text;html=1;strokeColor=none;fillColor=none;align=left;verticalAlign=middle;whiteSpace=wrap;rounded=0;fontSize=12;" vertex="1" parent="VODUsRYp1Ze5HDBZDZkg-22">
          <mxGeometry y="310" width="140" height="30" as="geometry" />
        </mxCell>
        <mxCell id="VODUsRYp1Ze5HDBZDZkg-38" value="&lt;div class=&quot;page&quot; title=&quot;Page 11&quot; style=&quot;font-size: 12px&quot;&gt;&lt;div class=&quot;section&quot; style=&quot;background-color: rgb(255 , 255 , 255) ; font-size: 12px&quot;&gt;&lt;div class=&quot;layoutArea&quot; style=&quot;font-size: 12px&quot;&gt;&lt;div class=&quot;column&quot; style=&quot;font-size: 12px&quot;&gt;&lt;div class=&quot;page&quot; title=&quot;Page 11&quot; style=&quot;font-size: 12px&quot;&gt;&lt;div class=&quot;section&quot; style=&quot;font-size: 12px&quot;&gt;&lt;div class=&quot;layoutArea&quot; style=&quot;font-size: 12px&quot;&gt;&lt;div class=&quot;column&quot; style=&quot;font-size: 12px&quot;&gt;&lt;div class=&quot;page&quot; title=&quot;Page 11&quot; style=&quot;font-size: 12px&quot;&gt;&lt;div class=&quot;section&quot; style=&quot;font-size: 12px&quot;&gt;&lt;div class=&quot;layoutArea&quot; style=&quot;font-size: 12px&quot;&gt;&lt;div class=&quot;column&quot; style=&quot;font-size: 12px&quot;&gt;&lt;div class=&quot;page&quot; title=&quot;Page 11&quot; style=&quot;font-size: 12px&quot;&gt;&lt;div class=&quot;section&quot; style=&quot;font-size: 12px&quot;&gt;&lt;div class=&quot;layoutArea&quot; style=&quot;font-size: 12px&quot;&gt;&lt;div class=&quot;column&quot; style=&quot;font-size: 12px&quot;&gt;&lt;p style=&quot;font-size: 12px&quot;&gt;&lt;span style=&quot;font-size: 12px ; font-family: &amp;#34;arialmt&amp;#34;&quot;&gt;&amp;nbsp;+ pickQuestion()&lt;/span&gt;&lt;/p&gt;&lt;/div&gt;&lt;/div&gt;&lt;/div&gt;&lt;/div&gt;&lt;/div&gt;&lt;/div&gt;&lt;/div&gt;&lt;/div&gt;&lt;/div&gt;&lt;/div&gt;&lt;/div&gt;&lt;/div&gt;&lt;/div&gt;&lt;/div&gt;&lt;/div&gt;&lt;/div&gt;" style="text;html=1;strokeColor=none;fillColor=none;align=left;verticalAlign=middle;whiteSpace=wrap;rounded=0;fontSize=12;" vertex="1" parent="VODUsRYp1Ze5HDBZDZkg-22">
          <mxGeometry y="340" width="140" height="30" as="geometry" />
        </mxCell>
        <mxCell id="VODUsRYp1Ze5HDBZDZkg-40" value="&lt;div class=&quot;page&quot; title=&quot;Page 11&quot; style=&quot;color: rgb(0 , 0 , 0) ; font-style: normal ; font-weight: normal ; letter-spacing: normal ; text-indent: 0px ; text-transform: none ; word-spacing: 0px ; text-decoration: none ; font-size: 12px&quot;&gt;&lt;div class=&quot;section&quot; style=&quot;background-color: rgb(255 , 255 , 255) ; font-size: 12px&quot;&gt;&lt;div class=&quot;layoutArea&quot; style=&quot;font-size: 12px&quot;&gt;&lt;div class=&quot;column&quot; style=&quot;font-size: 12px&quot;&gt;&lt;p style=&quot;font-size: 12px&quot;&gt;&lt;span style=&quot;font-size: 12px ; font-family: &amp;#34;arialmt&amp;#34;&quot;&gt;&amp;nbsp;+ pauseGhost()&lt;/span&gt;&lt;/p&gt;&lt;/div&gt;&lt;/div&gt;&lt;/div&gt;&lt;/div&gt;" style="text;html=1;strokeColor=none;fillColor=none;align=left;verticalAlign=middle;whiteSpace=wrap;rounded=0;fontSize=12;" vertex="1" parent="VODUsRYp1Ze5HDBZDZkg-22">
          <mxGeometry y="370" width="140" height="30" as="geometry" />
        </mxCell>
        <mxCell id="VODUsRYp1Ze5HDBZDZkg-42" value="&lt;div class=&quot;page&quot; title=&quot;Page 11&quot; style=&quot;font-size: 12px&quot;&gt;&lt;div class=&quot;section&quot; style=&quot;background-color: rgb(255 , 255 , 255) ; font-size: 12px&quot;&gt;&lt;div class=&quot;layoutArea&quot; style=&quot;font-size: 12px&quot;&gt;&lt;div class=&quot;column&quot; style=&quot;font-size: 12px&quot;&gt;&lt;div class=&quot;page&quot; title=&quot;Page 11&quot; style=&quot;font-size: 12px&quot;&gt;&lt;div class=&quot;section&quot; style=&quot;font-size: 12px&quot;&gt;&lt;div class=&quot;layoutArea&quot; style=&quot;font-size: 12px&quot;&gt;&lt;div class=&quot;column&quot; style=&quot;font-size: 12px&quot;&gt;&lt;div class=&quot;page&quot; title=&quot;Page 11&quot; style=&quot;font-size: 12px&quot;&gt;&lt;div class=&quot;section&quot; style=&quot;font-size: 12px&quot;&gt;&lt;div class=&quot;layoutArea&quot; style=&quot;font-size: 12px&quot;&gt;&lt;div class=&quot;column&quot; style=&quot;font-size: 12px&quot;&gt;&lt;div class=&quot;page&quot; title=&quot;Page 11&quot; style=&quot;font-size: 12px&quot;&gt;&lt;div class=&quot;section&quot; style=&quot;font-size: 12px&quot;&gt;&lt;div class=&quot;layoutArea&quot; style=&quot;font-size: 12px&quot;&gt;&lt;div class=&quot;column&quot; style=&quot;font-size: 12px&quot;&gt;&lt;div class=&quot;page&quot; title=&quot;Page 11&quot; style=&quot;font-size: 12px&quot;&gt;&lt;div class=&quot;section&quot; style=&quot;font-size: 12px&quot;&gt;&lt;div class=&quot;layoutArea&quot; style=&quot;font-size: 12px&quot;&gt;&lt;div class=&quot;column&quot; style=&quot;font-size: 12px&quot;&gt;&lt;div class=&quot;page&quot; title=&quot;Page 11&quot; style=&quot;font-size: 12px&quot;&gt;&lt;div class=&quot;section&quot; style=&quot;font-size: 12px&quot;&gt;&lt;div class=&quot;layoutArea&quot; style=&quot;font-size: 12px&quot;&gt;&lt;div class=&quot;column&quot; style=&quot;font-size: 12px&quot;&gt;&lt;p style=&quot;font-size: 12px&quot;&gt;&lt;span style=&quot;font-size: 12px ; font-family: &amp;#34;arialmt&amp;#34;&quot;&gt;+ updatePassageWay()&lt;/span&gt;&lt;/p&gt;&lt;/div&gt;&lt;/div&gt;&lt;/div&gt;&lt;/div&gt;&lt;/div&gt;&lt;/div&gt;&lt;/div&gt;&lt;/div&gt;&lt;/div&gt;&lt;/div&gt;&lt;/div&gt;&lt;/div&gt;&lt;/div&gt;&lt;/div&gt;&lt;/div&gt;&lt;/div&gt;&lt;/div&gt;&lt;/div&gt;&lt;/div&gt;&lt;/div&gt;&lt;/div&gt;&lt;/div&gt;&lt;/div&gt;&lt;/div&gt;" style="text;html=1;strokeColor=none;fillColor=none;align=left;verticalAlign=middle;whiteSpace=wrap;rounded=0;fontSize=12;" vertex="1" parent="VODUsRYp1Ze5HDBZDZkg-22">
          <mxGeometry y="400" width="140" height="30" as="geometry" />
        </mxCell>
        <mxCell id="VODUsRYp1Ze5HDBZDZkg-41" value="&lt;div class=&quot;page&quot; title=&quot;Page 11&quot; style=&quot;font-size: 12px&quot;&gt;&lt;div class=&quot;section&quot; style=&quot;background-color: rgb(255 , 255 , 255) ; font-size: 12px&quot;&gt;&lt;div class=&quot;layoutArea&quot; style=&quot;font-size: 12px&quot;&gt;&lt;div class=&quot;column&quot; style=&quot;font-size: 12px&quot;&gt;&lt;div class=&quot;page&quot; title=&quot;Page 11&quot; style=&quot;font-size: 12px&quot;&gt;&lt;div class=&quot;section&quot; style=&quot;font-size: 12px&quot;&gt;&lt;div class=&quot;layoutArea&quot; style=&quot;font-size: 12px&quot;&gt;&lt;div class=&quot;column&quot; style=&quot;font-size: 12px&quot;&gt;&lt;div class=&quot;page&quot; title=&quot;Page 11&quot; style=&quot;font-size: 12px&quot;&gt;&lt;div class=&quot;section&quot; style=&quot;font-size: 12px&quot;&gt;&lt;div class=&quot;layoutArea&quot; style=&quot;font-size: 12px&quot;&gt;&lt;div class=&quot;column&quot; style=&quot;font-size: 12px&quot;&gt;&lt;div class=&quot;page&quot; title=&quot;Page 11&quot; style=&quot;font-size: 12px&quot;&gt;&lt;div class=&quot;section&quot; style=&quot;font-size: 12px&quot;&gt;&lt;div class=&quot;layoutArea&quot; style=&quot;font-size: 12px&quot;&gt;&lt;div class=&quot;column&quot; style=&quot;font-size: 12px&quot;&gt;&lt;div class=&quot;page&quot; title=&quot;Page 11&quot; style=&quot;font-size: 12px&quot;&gt;&lt;div class=&quot;section&quot; style=&quot;font-size: 12px&quot;&gt;&lt;div class=&quot;layoutArea&quot; style=&quot;font-size: 12px&quot;&gt;&lt;div class=&quot;column&quot; style=&quot;font-size: 12px&quot;&gt;&lt;p style=&quot;font-size: 12px&quot;&gt;&lt;span style=&quot;font-size: 12px ; font-family: &amp;#34;arialmt&amp;#34;&quot;&gt;+ ghostPlay()&lt;/span&gt;&lt;/p&gt;&lt;/div&gt;&lt;/div&gt;&lt;/div&gt;&lt;/div&gt;&lt;/div&gt;&lt;/div&gt;&lt;/div&gt;&lt;/div&gt;&lt;/div&gt;&lt;/div&gt;&lt;/div&gt;&lt;/div&gt;&lt;/div&gt;&lt;/div&gt;&lt;/div&gt;&lt;/div&gt;&lt;/div&gt;&lt;/div&gt;&lt;/div&gt;&lt;/div&gt;" style="text;html=1;strokeColor=none;fillColor=none;align=left;verticalAlign=middle;whiteSpace=wrap;rounded=0;fontSize=12;" vertex="1" parent="VODUsRYp1Ze5HDBZDZkg-22">
          <mxGeometry y="430" width="140" height="30" as="geometry" />
        </mxCell>
        <mxCell id="VODUsRYp1Ze5HDBZDZkg-113" value="&lt;div class=&quot;page&quot; title=&quot;Page 11&quot; style=&quot;font-size: 12px&quot;&gt;&lt;div class=&quot;section&quot; style=&quot;background-color: rgb(255 , 255 , 255) ; font-size: 12px&quot;&gt;&lt;div class=&quot;layoutArea&quot; style=&quot;font-size: 12px&quot;&gt;&lt;div class=&quot;column&quot; style=&quot;font-size: 12px&quot;&gt;&lt;div class=&quot;page&quot; title=&quot;Page 11&quot; style=&quot;font-size: 12px&quot;&gt;&lt;div class=&quot;section&quot; style=&quot;font-size: 12px&quot;&gt;&lt;div class=&quot;layoutArea&quot; style=&quot;font-size: 12px&quot;&gt;&lt;div class=&quot;column&quot; style=&quot;font-size: 12px&quot;&gt;&lt;div class=&quot;page&quot; title=&quot;Page 11&quot; style=&quot;font-size: 12px&quot;&gt;&lt;div class=&quot;section&quot; style=&quot;font-size: 12px&quot;&gt;&lt;div class=&quot;layoutArea&quot; style=&quot;font-size: 12px&quot;&gt;&lt;div class=&quot;column&quot; style=&quot;font-size: 12px&quot;&gt;&lt;div class=&quot;page&quot; title=&quot;Page 11&quot; style=&quot;font-size: 12px&quot;&gt;&lt;div class=&quot;section&quot; style=&quot;font-size: 12px&quot;&gt;&lt;div class=&quot;layoutArea&quot; style=&quot;font-size: 12px&quot;&gt;&lt;div class=&quot;column&quot; style=&quot;font-size: 12px&quot;&gt;&lt;div class=&quot;page&quot; title=&quot;Page 11&quot; style=&quot;font-size: 12px&quot;&gt;&lt;div class=&quot;section&quot; style=&quot;font-size: 12px&quot;&gt;&lt;div class=&quot;layoutArea&quot; style=&quot;font-size: 12px&quot;&gt;&lt;div class=&quot;column&quot; style=&quot;font-size: 12px&quot;&gt;&lt;p style=&quot;font-size: 12px&quot;&gt;&lt;span style=&quot;font-size: 12px ; font-family: &amp;#34;arialmt&amp;#34;&quot;&gt;+ getID()&lt;/span&gt;&lt;/p&gt;&lt;/div&gt;&lt;/div&gt;&lt;/div&gt;&lt;/div&gt;&lt;/div&gt;&lt;/div&gt;&lt;/div&gt;&lt;/div&gt;&lt;/div&gt;&lt;/div&gt;&lt;/div&gt;&lt;/div&gt;&lt;/div&gt;&lt;/div&gt;&lt;/div&gt;&lt;/div&gt;&lt;/div&gt;&lt;/div&gt;&lt;/div&gt;&lt;/div&gt;" style="text;html=1;strokeColor=none;fillColor=none;align=left;verticalAlign=middle;whiteSpace=wrap;rounded=0;fontSize=12;" vertex="1" parent="VODUsRYp1Ze5HDBZDZkg-22">
          <mxGeometry y="460" width="140" height="30" as="geometry" />
        </mxCell>
        <mxCell id="VODUsRYp1Ze5HDBZDZkg-114" value="&lt;div class=&quot;page&quot; title=&quot;Page 11&quot; style=&quot;font-size: 12px&quot;&gt;&lt;div class=&quot;section&quot; style=&quot;background-color: rgb(255 , 255 , 255) ; font-size: 12px&quot;&gt;&lt;div class=&quot;layoutArea&quot; style=&quot;font-size: 12px&quot;&gt;&lt;div class=&quot;column&quot; style=&quot;font-size: 12px&quot;&gt;&lt;div class=&quot;page&quot; title=&quot;Page 11&quot; style=&quot;font-size: 12px&quot;&gt;&lt;div class=&quot;section&quot; style=&quot;font-size: 12px&quot;&gt;&lt;div class=&quot;layoutArea&quot; style=&quot;font-size: 12px&quot;&gt;&lt;div class=&quot;column&quot; style=&quot;font-size: 12px&quot;&gt;&lt;div class=&quot;page&quot; title=&quot;Page 11&quot; style=&quot;font-size: 12px&quot;&gt;&lt;div class=&quot;section&quot; style=&quot;font-size: 12px&quot;&gt;&lt;div class=&quot;layoutArea&quot; style=&quot;font-size: 12px&quot;&gt;&lt;div class=&quot;column&quot; style=&quot;font-size: 12px&quot;&gt;&lt;div class=&quot;page&quot; title=&quot;Page 11&quot; style=&quot;font-size: 12px&quot;&gt;&lt;div class=&quot;section&quot; style=&quot;font-size: 12px&quot;&gt;&lt;div class=&quot;layoutArea&quot; style=&quot;font-size: 12px&quot;&gt;&lt;div class=&quot;column&quot; style=&quot;font-size: 12px&quot;&gt;&lt;div class=&quot;page&quot; title=&quot;Page 11&quot; style=&quot;font-size: 12px&quot;&gt;&lt;div class=&quot;section&quot; style=&quot;font-size: 12px&quot;&gt;&lt;div class=&quot;layoutArea&quot; style=&quot;font-size: 12px&quot;&gt;&lt;div class=&quot;column&quot; style=&quot;font-size: 12px&quot;&gt;&lt;p style=&quot;font-size: 12px&quot;&gt;&lt;span style=&quot;font-size: 12px ; font-family: &amp;#34;arialmt&amp;#34;&quot;&gt;+ setID()&lt;/span&gt;&lt;/p&gt;&lt;/div&gt;&lt;/div&gt;&lt;/div&gt;&lt;/div&gt;&lt;/div&gt;&lt;/div&gt;&lt;/div&gt;&lt;/div&gt;&lt;/div&gt;&lt;/div&gt;&lt;/div&gt;&lt;/div&gt;&lt;/div&gt;&lt;/div&gt;&lt;/div&gt;&lt;/div&gt;&lt;/div&gt;&lt;/div&gt;&lt;/div&gt;&lt;/div&gt;" style="text;html=1;strokeColor=none;fillColor=none;align=left;verticalAlign=middle;whiteSpace=wrap;rounded=0;fontSize=12;" vertex="1" parent="VODUsRYp1Ze5HDBZDZkg-22">
          <mxGeometry y="490" width="140" height="30" as="geometry" />
        </mxCell>
        <mxCell id="VODUsRYp1Ze5HDBZDZkg-115" value="&lt;div class=&quot;page&quot; title=&quot;Page 11&quot; style=&quot;font-size: 12px&quot;&gt;&lt;div class=&quot;section&quot; style=&quot;background-color: rgb(255 , 255 , 255) ; font-size: 12px&quot;&gt;&lt;div class=&quot;layoutArea&quot; style=&quot;font-size: 12px&quot;&gt;&lt;div class=&quot;column&quot; style=&quot;font-size: 12px&quot;&gt;&lt;div class=&quot;page&quot; title=&quot;Page 11&quot; style=&quot;font-size: 12px&quot;&gt;&lt;div class=&quot;section&quot; style=&quot;font-size: 12px&quot;&gt;&lt;div class=&quot;layoutArea&quot; style=&quot;font-size: 12px&quot;&gt;&lt;div class=&quot;column&quot; style=&quot;font-size: 12px&quot;&gt;&lt;div class=&quot;page&quot; title=&quot;Page 11&quot; style=&quot;font-size: 12px&quot;&gt;&lt;div class=&quot;section&quot; style=&quot;font-size: 12px&quot;&gt;&lt;div class=&quot;layoutArea&quot; style=&quot;font-size: 12px&quot;&gt;&lt;div class=&quot;column&quot; style=&quot;font-size: 12px&quot;&gt;&lt;div class=&quot;page&quot; title=&quot;Page 11&quot; style=&quot;font-size: 12px&quot;&gt;&lt;div class=&quot;section&quot; style=&quot;font-size: 12px&quot;&gt;&lt;div class=&quot;layoutArea&quot; style=&quot;font-size: 12px&quot;&gt;&lt;div class=&quot;column&quot; style=&quot;font-size: 12px&quot;&gt;&lt;div class=&quot;page&quot; title=&quot;Page 11&quot; style=&quot;font-size: 12px&quot;&gt;&lt;div class=&quot;section&quot; style=&quot;font-size: 12px&quot;&gt;&lt;div class=&quot;layoutArea&quot; style=&quot;font-size: 12px&quot;&gt;&lt;div class=&quot;column&quot; style=&quot;font-size: 12px&quot;&gt;&lt;p style=&quot;font-size: 12px&quot;&gt;&lt;span style=&quot;font-size: 12px ; font-family: &amp;#34;arialmt&amp;#34;&quot;&gt;+ getScore()&lt;/span&gt;&lt;/p&gt;&lt;/div&gt;&lt;/div&gt;&lt;/div&gt;&lt;/div&gt;&lt;/div&gt;&lt;/div&gt;&lt;/div&gt;&lt;/div&gt;&lt;/div&gt;&lt;/div&gt;&lt;/div&gt;&lt;/div&gt;&lt;/div&gt;&lt;/div&gt;&lt;/div&gt;&lt;/div&gt;&lt;/div&gt;&lt;/div&gt;&lt;/div&gt;&lt;/div&gt;" style="text;html=1;strokeColor=none;fillColor=none;align=left;verticalAlign=middle;whiteSpace=wrap;rounded=0;fontSize=12;" vertex="1" parent="VODUsRYp1Ze5HDBZDZkg-22">
          <mxGeometry y="520" width="140" height="30" as="geometry" />
        </mxCell>
        <mxCell id="VODUsRYp1Ze5HDBZDZkg-39" value="&lt;div class=&quot;page&quot; title=&quot;Page 11&quot; style=&quot;font-size: 12px&quot;&gt;&lt;div class=&quot;section&quot; style=&quot;background-color: rgb(255 , 255 , 255) ; font-size: 12px&quot;&gt;&lt;div class=&quot;layoutArea&quot; style=&quot;font-size: 12px&quot;&gt;&lt;div class=&quot;column&quot; style=&quot;font-size: 12px&quot;&gt;&lt;div class=&quot;page&quot; title=&quot;Page 11&quot; style=&quot;font-size: 12px&quot;&gt;&lt;div class=&quot;section&quot; style=&quot;font-size: 12px&quot;&gt;&lt;div class=&quot;layoutArea&quot; style=&quot;font-size: 12px&quot;&gt;&lt;div class=&quot;column&quot; style=&quot;font-size: 12px&quot;&gt;&lt;div class=&quot;page&quot; title=&quot;Page 11&quot; style=&quot;font-size: 12px&quot;&gt;&lt;div class=&quot;section&quot; style=&quot;font-size: 12px&quot;&gt;&lt;div class=&quot;layoutArea&quot; style=&quot;font-size: 12px&quot;&gt;&lt;div class=&quot;column&quot; style=&quot;font-size: 12px&quot;&gt;&lt;div class=&quot;page&quot; title=&quot;Page 11&quot; style=&quot;font-size: 12px&quot;&gt;&lt;div class=&quot;section&quot; style=&quot;font-size: 12px&quot;&gt;&lt;div class=&quot;layoutArea&quot; style=&quot;font-size: 12px&quot;&gt;&lt;div class=&quot;column&quot; style=&quot;font-size: 12px&quot;&gt;&lt;p style=&quot;font-size: 12px&quot;&gt;&lt;span style=&quot;font-size: 12px ; font-family: &amp;#34;arialmt&amp;#34;&quot;&gt;&amp;nbsp;+ setScore()&lt;/span&gt;&lt;/p&gt;&lt;/div&gt;&lt;/div&gt;&lt;/div&gt;&lt;/div&gt;&lt;/div&gt;&lt;/div&gt;&lt;/div&gt;&lt;/div&gt;&lt;/div&gt;&lt;/div&gt;&lt;/div&gt;&lt;/div&gt;&lt;/div&gt;&lt;/div&gt;&lt;/div&gt;&lt;/div&gt;" style="text;html=1;strokeColor=none;fillColor=none;align=left;verticalAlign=middle;whiteSpace=wrap;rounded=0;fontSize=12;" vertex="1" parent="VODUsRYp1Ze5HDBZDZkg-22">
          <mxGeometry y="550" width="140" height="30" as="geometry" />
        </mxCell>
        <mxCell id="VODUsRYp1Ze5HDBZDZkg-116" value="&lt;div class=&quot;page&quot; title=&quot;Page 11&quot; style=&quot;font-size: 12px&quot;&gt;&lt;div class=&quot;section&quot; style=&quot;background-color: rgb(255 , 255 , 255) ; font-size: 12px&quot;&gt;&lt;div class=&quot;layoutArea&quot; style=&quot;font-size: 12px&quot;&gt;&lt;div class=&quot;column&quot; style=&quot;font-size: 12px&quot;&gt;&lt;div class=&quot;page&quot; title=&quot;Page 11&quot; style=&quot;font-size: 12px&quot;&gt;&lt;div class=&quot;section&quot; style=&quot;font-size: 12px&quot;&gt;&lt;div class=&quot;layoutArea&quot; style=&quot;font-size: 12px&quot;&gt;&lt;div class=&quot;column&quot; style=&quot;font-size: 12px&quot;&gt;&lt;div class=&quot;page&quot; title=&quot;Page 11&quot; style=&quot;font-size: 12px&quot;&gt;&lt;div class=&quot;section&quot; style=&quot;font-size: 12px&quot;&gt;&lt;div class=&quot;layoutArea&quot; style=&quot;font-size: 12px&quot;&gt;&lt;div class=&quot;column&quot; style=&quot;font-size: 12px&quot;&gt;&lt;div class=&quot;page&quot; title=&quot;Page 11&quot; style=&quot;font-size: 12px&quot;&gt;&lt;div class=&quot;section&quot; style=&quot;font-size: 12px&quot;&gt;&lt;div class=&quot;layoutArea&quot; style=&quot;font-size: 12px&quot;&gt;&lt;div class=&quot;column&quot; style=&quot;font-size: 12px&quot;&gt;&lt;div class=&quot;page&quot; title=&quot;Page 11&quot; style=&quot;font-size: 12px&quot;&gt;&lt;div class=&quot;section&quot; style=&quot;font-size: 12px&quot;&gt;&lt;div class=&quot;layoutArea&quot; style=&quot;font-size: 12px&quot;&gt;&lt;div class=&quot;column&quot; style=&quot;font-size: 12px&quot;&gt;&lt;p style=&quot;font-size: 12px&quot;&gt;&lt;span style=&quot;font-size: 12px ; font-family: &amp;#34;arialmt&amp;#34;&quot;&gt;+ getLive()&lt;/span&gt;&lt;/p&gt;&lt;/div&gt;&lt;/div&gt;&lt;/div&gt;&lt;/div&gt;&lt;/div&gt;&lt;/div&gt;&lt;/div&gt;&lt;/div&gt;&lt;/div&gt;&lt;/div&gt;&lt;/div&gt;&lt;/div&gt;&lt;/div&gt;&lt;/div&gt;&lt;/div&gt;&lt;/div&gt;&lt;/div&gt;&lt;/div&gt;&lt;/div&gt;&lt;/div&gt;" style="text;html=1;strokeColor=none;fillColor=none;align=left;verticalAlign=middle;whiteSpace=wrap;rounded=0;fontSize=12;" vertex="1" parent="VODUsRYp1Ze5HDBZDZkg-22">
          <mxGeometry y="580" width="140" height="30" as="geometry" />
        </mxCell>
        <mxCell id="VODUsRYp1Ze5HDBZDZkg-35" value="&lt;div class=&quot;page&quot; title=&quot;Page 11&quot; style=&quot;font-size: 12px&quot;&gt;&lt;div class=&quot;section&quot; style=&quot;background-color: rgb(255 , 255 , 255) ; font-size: 12px&quot;&gt;&lt;div class=&quot;layoutArea&quot; style=&quot;font-size: 12px&quot;&gt;&lt;div class=&quot;column&quot; style=&quot;font-size: 12px&quot;&gt;&lt;div class=&quot;page&quot; title=&quot;Page 11&quot; style=&quot;font-size: 12px&quot;&gt;&lt;div class=&quot;section&quot; style=&quot;font-size: 12px&quot;&gt;&lt;div class=&quot;layoutArea&quot; style=&quot;font-size: 12px&quot;&gt;&lt;div class=&quot;column&quot; style=&quot;font-size: 12px&quot;&gt;&lt;div class=&quot;page&quot; title=&quot;Page 11&quot; style=&quot;font-size: 12px&quot;&gt;&lt;div class=&quot;section&quot; style=&quot;font-size: 12px&quot;&gt;&lt;div class=&quot;layoutArea&quot; style=&quot;font-size: 12px&quot;&gt;&lt;div class=&quot;column&quot; style=&quot;font-size: 12px&quot;&gt;&lt;p style=&quot;font-size: 12px&quot;&gt;&lt;span style=&quot;font-size: 12px ; font-family: &amp;#34;arialmt&amp;#34;&quot;&gt;&amp;nbsp;+ setLive()&lt;/span&gt;&lt;/p&gt;&lt;/div&gt;&lt;/div&gt;&lt;/div&gt;&lt;/div&gt;&lt;/div&gt;&lt;/div&gt;&lt;/div&gt;&lt;/div&gt;&lt;/div&gt;&lt;/div&gt;&lt;/div&gt;&lt;/div&gt;" style="text;html=1;strokeColor=none;fillColor=none;align=left;verticalAlign=middle;whiteSpace=wrap;rounded=0;fontSize=12;" vertex="1" parent="VODUsRYp1Ze5HDBZDZkg-22">
          <mxGeometry y="610" width="140" height="30" as="geometry" />
        </mxCell>
        <mxCell id="VODUsRYp1Ze5HDBZDZkg-43" value="PeckPoints" style="swimlane;fontStyle=0;childLayout=stackLayout;horizontal=1;startSize=30;horizontalStack=0;resizeParent=1;resizeParentMax=0;resizeLast=0;collapsible=1;marginBottom=0;" vertex="1" parent="WIyWlLk6GJQsqaUBKTNV-1">
          <mxGeometry x="30" y="585" width="170" height="90" as="geometry" />
        </mxCell>
        <mxCell id="VODUsRYp1Ze5HDBZDZkg-44" value="ID:" style="text;strokeColor=none;fillColor=none;align=left;verticalAlign=middle;spacingLeft=4;spacingRight=4;overflow=hidden;points=[[0,0.5],[1,0.5]];portConstraint=eastwest;rotatable=0;" vertex="1" parent="VODUsRYp1Ze5HDBZDZkg-43">
          <mxGeometry y="30" width="170" height="30" as="geometry" />
        </mxCell>
        <mxCell id="VODUsRYp1Ze5HDBZDZkg-45" value="Image" style="text;strokeColor=none;fillColor=none;align=left;verticalAlign=middle;spacingLeft=4;spacingRight=4;overflow=hidden;points=[[0,0.5],[1,0.5]];portConstraint=eastwest;rotatable=0;" vertex="1" parent="VODUsRYp1Ze5HDBZDZkg-43">
          <mxGeometry y="60" width="170" height="30" as="geometry" />
        </mxCell>
        <mxCell id="VODUsRYp1Ze5HDBZDZkg-47" value="BombPoints" style="swimlane;fontStyle=0;childLayout=stackLayout;horizontal=1;startSize=30;horizontalStack=0;resizeParent=1;resizeParentMax=0;resizeLast=0;collapsible=1;marginBottom=0;" vertex="1" parent="WIyWlLk6GJQsqaUBKTNV-1">
          <mxGeometry x="-30" y="790" width="140" height="60" as="geometry" />
        </mxCell>
        <mxCell id="VODUsRYp1Ze5HDBZDZkg-52" value="Board" style="swimlane;fontStyle=0;childLayout=stackLayout;horizontal=1;startSize=30;horizontalStack=0;resizeParent=1;resizeParentMax=0;resizeLast=0;collapsible=1;marginBottom=0;" vertex="1" parent="WIyWlLk6GJQsqaUBKTNV-1">
          <mxGeometry x="350" y="440" width="140" height="120" as="geometry" />
        </mxCell>
        <mxCell id="VODUsRYp1Ze5HDBZDZkg-25" value="WallsPassageWay" style="text;strokeColor=none;fillColor=none;align=left;verticalAlign=middle;spacingLeft=4;spacingRight=4;overflow=hidden;points=[[0,0.5],[1,0.5]];portConstraint=eastwest;rotatable=0;" vertex="1" parent="VODUsRYp1Ze5HDBZDZkg-52">
          <mxGeometry y="30" width="140" height="30" as="geometry" />
        </mxCell>
        <mxCell id="VODUsRYp1Ze5HDBZDZkg-65" value="Ghosts" style="text;html=1;strokeColor=none;fillColor=none;align=center;verticalAlign=middle;whiteSpace=wrap;rounded=0;" vertex="1" parent="VODUsRYp1Ze5HDBZDZkg-52">
          <mxGeometry y="60" width="140" height="30" as="geometry" />
        </mxCell>
        <mxCell id="VODUsRYp1Ze5HDBZDZkg-53" value="pakcman" style="text;strokeColor=none;fillColor=none;align=left;verticalAlign=middle;spacingLeft=4;spacingRight=4;overflow=hidden;points=[[0,0.5],[1,0.5]];portConstraint=eastwest;rotatable=0;" vertex="1" parent="VODUsRYp1Ze5HDBZDZkg-52">
          <mxGeometry y="90" width="140" height="30" as="geometry" />
        </mxCell>
        <mxCell id="VODUsRYp1Ze5HDBZDZkg-68" value="&lt;&lt;enum&gt;&gt;" style="swimlane;fontStyle=0;childLayout=stackLayout;horizontal=1;startSize=30;horizontalStack=0;resizeParent=1;resizeParentMax=0;resizeLast=0;collapsible=1;marginBottom=0;align=center;" vertex="1" parent="WIyWlLk6GJQsqaUBKTNV-1">
          <mxGeometry x="790" y="310" width="220" height="60" as="geometry" />
        </mxCell>
        <mxCell id="VODUsRYp1Ze5HDBZDZkg-70" value="level : &#39; easy, medium, hard, super hard &#39;" style="text;strokeColor=none;fillColor=none;align=left;verticalAlign=middle;spacingLeft=4;spacingRight=4;overflow=hidden;points=[[0,0.5],[1,0.5]];portConstraint=eastwest;rotatable=0;" vertex="1" parent="VODUsRYp1Ze5HDBZDZkg-68">
          <mxGeometry y="30" width="220" height="30" as="geometry" />
        </mxCell>
        <mxCell id="VODUsRYp1Ze5HDBZDZkg-73" style="edgeStyle=orthogonalEdgeStyle;rounded=0;orthogonalLoop=1;jettySize=auto;html=1;exitX=0.005;exitY=0.067;exitDx=0;exitDy=0;exitPerimeter=0;entryX=1;entryY=0.5;entryDx=0;entryDy=0;" edge="1" parent="WIyWlLk6GJQsqaUBKTNV-1" source="VODUsRYp1Ze5HDBZDZkg-70" target="VODUsRYp1Ze5HDBZDZkg-37">
          <mxGeometry relative="1" as="geometry">
            <mxPoint x="800" y="280" as="sourcePoint" />
            <mxPoint x="740" y="340" as="targetPoint" />
          </mxGeometry>
        </mxCell>
        <mxCell id="VODUsRYp1Ze5HDBZDZkg-74" value="Extends" style="endArrow=block;endSize=16;endFill=0;html=1;rounded=0;exitX=0.076;exitY=1.033;exitDx=0;exitDy=0;exitPerimeter=0;" edge="1" parent="WIyWlLk6GJQsqaUBKTNV-1" source="VODUsRYp1Ze5HDBZDZkg-45" target="VODUsRYp1Ze5HDBZDZkg-47">
          <mxGeometry width="160" relative="1" as="geometry">
            <mxPoint x="50" y="690" as="sourcePoint" />
            <mxPoint x="210" y="440" as="targetPoint" />
          </mxGeometry>
        </mxCell>
        <mxCell id="VODUsRYp1Ze5HDBZDZkg-75" value="Extends" style="endArrow=block;endSize=16;endFill=0;html=1;rounded=0;exitX=1;exitY=0.933;exitDx=0;exitDy=0;exitPerimeter=0;" edge="1" parent="WIyWlLk6GJQsqaUBKTNV-1" source="VODUsRYp1Ze5HDBZDZkg-45" target="zkfFHV4jXpPFQw0GAbJ--6">
          <mxGeometry width="160" relative="1" as="geometry">
            <mxPoint x="510" y="680" as="sourcePoint" />
            <mxPoint x="670" y="680" as="targetPoint" />
          </mxGeometry>
        </mxCell>
        <mxCell id="VODUsRYp1Ze5HDBZDZkg-76" value="" style="endArrow=diamondThin;endFill=1;endSize=24;html=1;rounded=0;exitX=1;exitY=0;exitDx=0;exitDy=0;entryX=0;entryY=0.75;entryDx=0;entryDy=0;" edge="1" parent="WIyWlLk6GJQsqaUBKTNV-1" source="VODUsRYp1Ze5HDBZDZkg-52" target="VODUsRYp1Ze5HDBZDZkg-34">
          <mxGeometry width="160" relative="1" as="geometry">
            <mxPoint x="550" y="630" as="sourcePoint" />
            <mxPoint x="560" y="190" as="targetPoint" />
            <Array as="points" />
          </mxGeometry>
        </mxCell>
        <mxCell id="VODUsRYp1Ze5HDBZDZkg-77" value="" style="endArrow=diamondThin;endFill=1;endSize=24;html=1;rounded=0;exitX=0.993;exitY=0.033;exitDx=0;exitDy=0;entryX=0;entryY=0;entryDx=0;entryDy=0;exitPerimeter=0;" edge="1" parent="WIyWlLk6GJQsqaUBKTNV-1" source="VODUsRYp1Ze5HDBZDZkg-44" target="VODUsRYp1Ze5HDBZDZkg-65">
          <mxGeometry width="160" relative="1" as="geometry">
            <mxPoint x="440" y="660" as="sourcePoint" />
            <mxPoint x="600" y="660" as="targetPoint" />
          </mxGeometry>
        </mxCell>
        <mxCell id="VODUsRYp1Ze5HDBZDZkg-78" value="" style="endArrow=diamondThin;endFill=1;endSize=24;html=1;rounded=0;entryX=0.938;entryY=-0.008;entryDx=0;entryDy=0;entryPerimeter=0;exitX=0.5;exitY=0;exitDx=0;exitDy=0;" edge="1" parent="WIyWlLk6GJQsqaUBKTNV-1" source="zkfFHV4jXpPFQw0GAbJ--17" target="zkfFHV4jXpPFQw0GAbJ--0">
          <mxGeometry width="160" relative="1" as="geometry">
            <mxPoint x="170" y="-40" as="sourcePoint" />
            <mxPoint x="80" y="10" as="targetPoint" />
            <Array as="points">
              <mxPoint x="340" y="-30" />
              <mxPoint x="200" y="-30" />
              <mxPoint x="120" y="-30" />
            </Array>
          </mxGeometry>
        </mxCell>
        <mxCell id="VODUsRYp1Ze5HDBZDZkg-79" value="" style="endArrow=diamondThin;endFill=1;endSize=24;html=1;rounded=0;entryX=0.7;entryY=-0.005;entryDx=0;entryDy=0;entryPerimeter=0;exitX=0.25;exitY=0;exitDx=0;exitDy=0;" edge="1" parent="WIyWlLk6GJQsqaUBKTNV-1" source="VODUsRYp1Ze5HDBZDZkg-22" target="zkfFHV4jXpPFQw0GAbJ--0">
          <mxGeometry width="160" relative="1" as="geometry">
            <mxPoint x="20" y="-80" as="sourcePoint" />
            <mxPoint x="180" y="-80" as="targetPoint" />
            <Array as="points">
              <mxPoint x="625" y="-40" />
              <mxPoint x="360" y="-40" />
              <mxPoint x="82" y="-40" />
            </Array>
          </mxGeometry>
        </mxCell>
        <mxCell id="VODUsRYp1Ze5HDBZDZkg-80" value="" style="endArrow=diamondThin;endFill=1;endSize=24;html=1;rounded=0;entryX=0.45;entryY=-0.008;entryDx=0;entryDy=0;entryPerimeter=0;exitX=0.75;exitY=0;exitDx=0;exitDy=0;" edge="1" parent="WIyWlLk6GJQsqaUBKTNV-1" source="zkfFHV4jXpPFQw0GAbJ--6" target="zkfFHV4jXpPFQw0GAbJ--0">
          <mxGeometry width="160" relative="1" as="geometry">
            <mxPoint x="-70" y="-70" as="sourcePoint" />
            <mxPoint x="90" y="-70" as="targetPoint" />
            <Array as="points">
              <mxPoint x="240" y="336" />
              <mxPoint x="240" y="140" />
              <mxPoint x="240" y="-60" />
              <mxPoint x="40" y="-60" />
            </Array>
          </mxGeometry>
        </mxCell>
        <mxCell id="VODUsRYp1Ze5HDBZDZkg-81" value="" style="endArrow=diamondThin;endFill=1;endSize=24;html=1;rounded=0;exitX=0.631;exitY=0.013;exitDx=0;exitDy=0;exitPerimeter=0;entryX=0.643;entryY=1.033;entryDx=0;entryDy=0;entryPerimeter=0;" edge="1" parent="WIyWlLk6GJQsqaUBKTNV-1" source="zkfFHV4jXpPFQw0GAbJ--13" target="VODUsRYp1Ze5HDBZDZkg-53">
          <mxGeometry width="160" relative="1" as="geometry">
            <mxPoint x="480" y="320" as="sourcePoint" />
            <mxPoint x="420" y="590" as="targetPoint" />
            <Array as="points" />
          </mxGeometry>
        </mxCell>
        <mxCell id="VODUsRYp1Ze5HDBZDZkg-92" value="&lt;&lt;enum&gt;&gt;" style="swimlane;fontStyle=0;childLayout=stackLayout;horizontal=1;startSize=30;horizontalStack=0;resizeParent=1;resizeParentMax=0;resizeLast=0;collapsible=1;marginBottom=0;align=center;" vertex="1" parent="WIyWlLk6GJQsqaUBKTNV-1">
          <mxGeometry x="800" y="100" width="220" height="60" as="geometry" />
        </mxCell>
        <mxCell id="VODUsRYp1Ze5HDBZDZkg-93" value="speed : &#39; 10, 20, 25, 30 &#39;" style="text;strokeColor=none;fillColor=none;align=left;verticalAlign=middle;spacingLeft=4;spacingRight=4;overflow=hidden;points=[[0,0.5],[1,0.5]];portConstraint=eastwest;rotatable=0;" vertex="1" parent="VODUsRYp1Ze5HDBZDZkg-92">
          <mxGeometry y="30" width="220" height="30" as="geometry" />
        </mxCell>
        <mxCell id="VODUsRYp1Ze5HDBZDZkg-96" value="" style="endArrow=classic;html=1;rounded=0;fontSize=12;entryX=1;entryY=0.5;entryDx=0;entryDy=0;exitX=0.005;exitY=0.4;exitDx=0;exitDy=0;exitPerimeter=0;" edge="1" parent="WIyWlLk6GJQsqaUBKTNV-1" source="VODUsRYp1Ze5HDBZDZkg-92" target="VODUsRYp1Ze5HDBZDZkg-27">
          <mxGeometry width="50" height="50" relative="1" as="geometry">
            <mxPoint x="780" y="230" as="sourcePoint" />
            <mxPoint x="830" y="180" as="targetPoint" />
          </mxGeometry>
        </mxCell>
        <mxCell id="VODUsRYp1Ze5HDBZDZkg-110" value="Relation" style="endArrow=open;html=1;endSize=12;startArrow=diamondThin;startSize=14;startFill=0;edgeStyle=orthogonalEdgeStyle;rounded=0;fontSize=12;entryX=1.019;entryY=0.769;entryDx=0;entryDy=0;exitX=0;exitY=0.75;exitDx=0;exitDy=0;entryPerimeter=0;" edge="1" parent="WIyWlLk6GJQsqaUBKTNV-1" source="VODUsRYp1Ze5HDBZDZkg-30" target="zkfFHV4jXpPFQw0GAbJ--25">
          <mxGeometry relative="1" as="geometry">
            <mxPoint x="660" y="20" as="sourcePoint" />
            <mxPoint x="820" y="20" as="targetPoint" />
          </mxGeometry>
        </mxCell>
        <mxCell id="VODUsRYp1Ze5HDBZDZkg-111" value="0..n" style="edgeLabel;resizable=0;html=1;align=left;verticalAlign=top;fontSize=12;" connectable="0" vertex="1" parent="VODUsRYp1Ze5HDBZDZkg-110">
          <mxGeometry x="-1" relative="1" as="geometry">
            <mxPoint x="-30" as="offset" />
          </mxGeometry>
        </mxCell>
        <mxCell id="VODUsRYp1Ze5HDBZDZkg-112" value="1" style="edgeLabel;resizable=0;html=1;align=right;verticalAlign=top;fontSize=12;" connectable="0" vertex="1" parent="VODUsRYp1Ze5HDBZDZkg-110">
          <mxGeometry x="1" relative="1" as="geometry" />
        </mxCell>
      </root>
    </mxGraphModel>
  </diagram>
</mxfile>
